<svg xmlns="http://www.w3.org/2000/svg" width="96" height="96" viewBox="0 0 96 96">
  <rect width="96" height="96" rx="24" fill="#ffe8f2"/>
  <circle cx="48" cy="48" r="28" fill="#ffd34d"/>
  <path d="M33 40c0-4 3-7 7-7 2 0 4 1 5 3 1-2 3-3 5-3 4 0 7 3 7 7 0 8-12 13-12 13s-12-5-12-13z" fill="#ff2d6f"/>
  <path d="M55 40c0-4 3-7 7-7 2 0 4 1 5 3 1-2 3-3 5-3 4 0 7 3 7 7 0 8-12 13-12 13s-12-5-12-13z" transform="translate(-8 0)" fill="#ff2d6f"/>
  <path d="M38 61c6 5 14 5 20 0" stroke="#222" stroke-width="4" fill="none" stroke-linecap="round"/>
</svg>
